<svg xmlns="http://www.w3.org/2000/svg" width="82" height="85.043" viewBox="0 0 82 85.043"><g transform="translate(-1209 -220.979)"><g transform="translate(1216.924 251)"><g transform="translate(0.076)" fill="none" stroke="#707070" stroke-width="1"><circle cx="3.5" cy="3.5" r="3.5" stroke="none"/><circle cx="3.5" cy="3.5" r="3" fill="none"/></g><g transform="translate(59.076)" fill="none" stroke="#707070" stroke-width="1"><circle cx="3.5" cy="3.5" r="3.5" stroke="none"/><circle cx="3.5" cy="3.5" r="3" fill="none"/></g><line x2="53.151" transform="translate(6.5 3.5)" fill="none" stroke="#707070" stroke-width="1"/></g><g transform="translate(1262.5 230.424) rotate(90)"><g transform="translate(0.076)" fill="none" stroke="#707070" stroke-width="1"><circle cx="3.5" cy="3.5" r="3.5" stroke="none"/><circle cx="3.5" cy="3.5" r="3" fill="none"/></g><g transform="translate(59.076)" fill="none" stroke="#707070" stroke-width="1"><circle cx="3.5" cy="3.5" r="3.5" stroke="none"/><circle cx="3.5" cy="3.5" r="3" fill="none"/></g><line x2="53.151" transform="translate(6.5 3.5)" fill="none" stroke="#707070" stroke-width="1"/></g><g transform="translate(1216.924 269)"><g transform="translate(0.076)" fill="none" stroke="#707070" stroke-width="1"><circle cx="3.5" cy="3.5" r="3.5" stroke="none"/><circle cx="3.5" cy="3.5" r="3" fill="none"/></g><g transform="translate(59.076)" fill="none" stroke="#707070" stroke-width="1"><circle cx="3.5" cy="3.5" r="3.5" stroke="none"/><circle cx="3.5" cy="3.5" r="3" fill="none"/></g><line x2="53.151" transform="translate(6.5 3.5)" fill="none" stroke="#707070" stroke-width="1"/></g><g transform="translate(1244.5 230.424) rotate(90)"><g transform="translate(0.076)" fill="none" stroke="#707070" stroke-width="1"><circle cx="3.5" cy="3.5" r="3.5" stroke="none"/><circle cx="3.5" cy="3.5" r="3" fill="none"/></g><g transform="translate(59.076)" fill="none" stroke="#707070" stroke-width="1"><circle cx="3.5" cy="3.5" r="3.5" stroke="none"/><circle cx="3.5" cy="3.5" r="3" fill="none"/></g><line x2="53.151" transform="translate(6.5 3.5)" fill="none" stroke="#707070" stroke-width="1"/></g><g transform="translate(1208.421 260)"><g transform="translate(0.579)" fill="none" stroke="#707070" stroke-width="1"><circle cx="3.5" cy="3.5" r="3.5" stroke="none"/><circle cx="3.5" cy="3.5" r="3" fill="none"/></g><g transform="translate(75.579)" fill="none" stroke="#707070" stroke-width="1"><circle cx="3.5" cy="3.5" r="3.5" stroke="none"/><circle cx="3.5" cy="3.5" r="3" fill="none"/></g><line x2="70.191" transform="translate(6.484 3.5)" fill="none" stroke="#707070" stroke-width="1"/></g><g transform="translate(1253.5 220.605) rotate(90)"><g transform="translate(0.374)" fill="none" stroke="#707070" stroke-width="1"><circle cx="3.5" cy="3.5" r="3.5" stroke="none"/><circle cx="3.5" cy="3.5" r="3" fill="none"/></g><g transform="translate(78.416)" fill="none" stroke="#707070" stroke-width="1"><circle cx="3.5" cy="3.5" r="3.5" stroke="none"/><circle cx="3.5" cy="3.5" r="3" fill="none"/></g><line x2="72.822" transform="translate(6.484 3.5)" fill="none" stroke="#707070" stroke-width="1"/></g><g transform="translate(1234 248)" fill="#282c34" stroke="#707070" stroke-width="1"><rect width="32" height="31" rx="4" stroke="none"/><rect x="0.5" y="0.5" width="31" height="30" rx="3.5" fill="none"/></g><path d="M36.54,20.626a4.03,4.03,0,0,0-1.154-2.84A4.078,4.078,0,0,0,31.9,13.035a3.3,3.3,0,0,0-5.7-.673,3.3,3.3,0,0,0-5.746.788,4.075,4.075,0,0,0-2.982,3.925c0,.1,0,.2.011.3a4.078,4.078,0,0,0-1.622,3.253,4.029,4.029,0,0,0,1.154,2.84A4.078,4.078,0,0,0,20.5,28.218a3.3,3.3,0,0,0,5.7.673,3.3,3.3,0,0,0,5.746-.788,4.075,4.075,0,0,0,2.982-3.925c0-.1,0-.2-.011-.3a4.079,4.079,0,0,0,1.622-3.253Zm-3.232,3.031A2.509,2.509,0,0,1,32.1,26.35a3.3,3.3,0,0,0-2.572-2.635.783.783,0,0,0-.319,1.533,1.748,1.748,0,0,1,1.395,1.693l-.05.34a1.722,1.722,0,0,1-1.85,1.385A1.763,1.763,0,0,1,27.13,26.9V14.348a1.755,1.755,0,0,1,1.4-1.738,1.735,1.735,0,0,1,2.019,1.331c.023.123.057.324.061.387A1.734,1.734,0,0,1,29.215,16a.786.786,0,0,0-.338,1.377.763.763,0,0,0,.638.159,3.316,3.316,0,0,0,2.62-2.855A2.51,2.51,0,0,1,33.77,17.82l-.159.511.417.334a2.508,2.508,0,0,1-.338,4.149l-.5.282.119.562Zm-10.119,1.59a.787.787,0,0,0,.337-1.378.766.766,0,0,0-.486-.174.777.777,0,0,0-.152.015,3.316,3.316,0,0,0-2.62,2.856,2.51,2.51,0,0,1-1.634-3.135l.159-.511-.418-.334a2.507,2.507,0,0,1,.337-4.149l.5-.282-.118-.562A2.5,2.5,0,0,1,20.3,14.9a3.3,3.3,0,0,0,2.572,2.636A.783.783,0,0,0,23.187,16a1.719,1.719,0,0,1-.87-.471,1.615,1.615,0,0,1-.522-1.22c.006-.087.051-.342.05-.342a1.728,1.728,0,0,1,1.849-1.385,1.763,1.763,0,0,1,1.579,1.763V26.9a1.763,1.763,0,0,1-1.479,1.753,1.734,1.734,0,0,1-1.942-1.343c-.021-.115-.057-.322-.062-.388a1.679,1.679,0,0,1,1.4-1.675Z" transform="translate(1223.96 242.837)" fill="#707070"/></g></svg>