<svg xmlns="http://www.w3.org/2000/svg" width="42.14" height="42.14" viewBox="0 0 42.14 42.14"><path d="M2.572,17.4h0v.007a1.93,1.93,0,0,0,.04.342l.02.174.022.183.036.246c.026.173.054.365.088.571l.131.629c.021.112.054.226.084.344l.1.362c.017.062.031.124.051.187l.06.19.125.391.032.1.037.1.075.2.156.414.181.42.093.214c.032.072.068.142.1.213l.213.432c.074.144.157.287.236.432l.121.218c.041.073.087.143.131.215l.269.432a16.114,16.114,0,0,0,1.272,1.665A15.965,15.965,0,0,0,7.77,27.577a15.815,15.815,0,0,0,1.709,1.239,15.6,15.6,0,0,0,1.789.938l.448.183c.074.029.147.061.221.088l.222.078c.148.051.292.1.436.15l.431.128c.071.02.14.043.211.061l.21.051.41.1.4.077.194.037.1.018.1.013.371.052.178.025c.059.009.118.011.175.017l.336.03c.109.009.214.021.317.022h.021a1.927,1.927,0,0,0,1.927,1.893h.056a1.929,1.929,0,0,0,.342-.04l.174-.02.183-.022.246-.036c.173-.026.365-.054.571-.088l.629-.131c.112-.021.226-.054.344-.084l.362-.1c.062-.017.124-.031.187-.051l.19-.06.391-.125.1-.032.1-.037.2-.075.414-.156.42-.181.214-.093c.072-.032.142-.068.213-.1l.432-.213c.144-.074.287-.157.432-.236l.218-.121c.073-.041.143-.087.215-.131l.432-.269A16.125,16.125,0,0,0,26.7,29.1a15.993,15.993,0,0,0,1.494-1.527,15.806,15.806,0,0,0,1.239-1.709,15.572,15.572,0,0,0,.938-1.789l.183-.448c.029-.074.061-.147.088-.221l.078-.222c.051-.148.1-.292.15-.436L31,22.321c.02-.071.043-.14.061-.211l.051-.211.1-.41.077-.4.037-.194.018-.1.013-.1.051-.371.025-.178c.009-.059.011-.118.017-.175l.03-.336c.009-.109.021-.214.022-.317,0-.016,0-.031,0-.047a1.928,1.928,0,0,0,1.92-1.928c0-.016,0-.033,0-.049h0V17.3a1.929,1.929,0,0,0-.04-.342l-.02-.174-.022-.183-.036-.246c-.026-.173-.054-.365-.088-.571l-.131-.628c-.021-.112-.054-.226-.084-.344l-.1-.362c-.017-.062-.031-.125-.051-.187l-.06-.19-.125-.391-.032-.1-.037-.1-.075-.2-.156-.414-.181-.42-.093-.214c-.032-.072-.068-.142-.1-.213l-.213-.432c-.074-.144-.157-.287-.236-.432l-.121-.218c-.041-.073-.087-.143-.131-.215l-.269-.432a16.127,16.127,0,0,0-1.272-1.665A15.972,15.972,0,0,0,28.22,7.127a15.806,15.806,0,0,0-1.709-1.239,15.577,15.577,0,0,0-1.789-.938l-.448-.183c-.074-.029-.147-.061-.221-.088L23.831,4.6c-.148-.051-.292-.1-.436-.15l-.431-.128c-.071-.02-.14-.043-.211-.061l-.21-.051-.41-.1-.4-.077L21.538,4l-.1-.018-.1-.013-.371-.052L20.8,3.891c-.059-.009-.118-.011-.175-.017l-.336-.03c-.109-.009-.214-.021-.317-.022l-.076,0a1.927,1.927,0,0,0-1.927-1.891h-.056a1.93,1.93,0,0,0-.342.04l-.174.02-.183.022-.246.036c-.173.026-.365.054-.571.088l-.629.131c-.112.021-.226.054-.344.084l-.362.1c-.062.017-.124.031-.187.051l-.19.06-.391.125-.1.032-.1.037-.2.075-.414.156-.42.181-.214.093c-.072.032-.142.068-.213.1l-.432.213c-.144.074-.287.157-.432.236l-.218.121c-.073.041-.143.087-.215.131l-.432.269A16.125,16.125,0,0,0,9.237,5.6,15.993,15.993,0,0,0,7.742,7.127,15.806,15.806,0,0,0,6.5,8.836a15.572,15.572,0,0,0-.938,1.789l-.183.448c-.029.074-.061.147-.088.221l-.078.222c-.051.148-.1.292-.15.436l-.128.431c-.02.071-.043.14-.061.211l-.051.211-.1.41-.077.4-.037.194-.018.1-.013.1-.051.371-.025.178c-.009.059-.011.118-.017.175l-.03.336c-.009.109-.021.214-.022.317,0,.017,0,.032,0,.049a1.928,1.928,0,0,0-1.865,1.926c0,.016,0,.032,0,.049Zm2.214-1.956,0-.017c.019-.1.049-.2.077-.3l.087-.315c.016-.054.028-.109.047-.163l.055-.165.113-.34.029-.087.034-.087L5.3,13.8l.14-.359.162-.364.083-.185c.028-.062.061-.123.092-.185l.19-.374c.066-.125.14-.248.211-.373l.108-.188c.036-.063.078-.124.117-.186l.239-.374A14.2,14.2,0,0,1,7.762,9.773,14.056,14.056,0,0,1,9.106,8.491a13.885,13.885,0,0,1,1.5-1.055,13.664,13.664,0,0,1,1.559-.791l.39-.152c.064-.024.127-.052.192-.074l.193-.064c.128-.042.253-.087.378-.125l.373-.1c.061-.017.121-.036.182-.05l.182-.041.354-.081.345-.061.167-.03L15,5.848l.082-.01L15.4,5.8l.154-.019c.05-.007.1-.008.151-.012L16,5.746c.094-.007.184-.016.273-.015l.493-.011.386.014.164,0,.179.011.175.011a1.944,1.944,0,0,0,.3.024h.049A1.928,1.928,0,0,0,19.87,4.164l.049.011c.1.019.2.049.3.077l.315.087c.054.016.109.028.163.047l.165.055.34.113.087.029.087.033.176.068.359.14.364.162.185.083c.062.028.123.061.185.092l.374.19c.125.066.248.14.373.211l.188.108c.063.036.124.078.186.117l.374.239a14.2,14.2,0,0,1,1.435,1.125,14.057,14.057,0,0,1,1.282,1.344,13.884,13.884,0,0,1,1.055,1.5,13.652,13.652,0,0,1,.791,1.559l.152.39c.024.064.052.127.074.192l.064.193c.042.128.087.253.125.378l.1.373c.017.061.036.121.05.182l.041.182.081.354.061.345.03.167.015.082.01.082.039.319.019.154c.007.05.008.1.012.151l.021.29c.007.094.016.184.015.273,0,.176.008.341.011.493s-.01.27-.014.386l0,.164-.011.179-.011.175a1.989,1.989,0,0,0-.023.3c0,.014,0,.028,0,.042V17.4h0a1.928,1.928,0,0,0,1.587,1.849l-.006.027c-.019.1-.049.2-.077.3l-.087.315c-.016.054-.028.109-.047.163l-.055.165-.113.34-.029.087-.034.087-.068.176-.14.359-.162.364-.083.185c-.028.062-.061.123-.092.185l-.19.374c-.066.125-.14.248-.211.373l-.108.188c-.036.063-.078.124-.117.186L29.3,23.5a14.2,14.2,0,0,1-1.125,1.435,14.056,14.056,0,0,1-1.344,1.282,13.885,13.885,0,0,1-1.5,1.055,13.664,13.664,0,0,1-1.559.791l-.39.152c-.064.024-.127.052-.192.074L23,28.35c-.128.042-.253.087-.378.125l-.373.1c-.061.017-.121.036-.182.05l-.182.041-.354.081-.345.061-.167.03-.082.015-.082.01-.319.039-.154.019c-.05.007-.1.008-.151.012l-.29.021c-.094.007-.184.016-.273.015l-.493.011-.386-.014-.164,0-.179-.011-.175-.011a1.943,1.943,0,0,0-.3-.024h-.049a1.928,1.928,0,0,0-1.852,1.608c-.1-.019-.194-.049-.295-.076l-.315-.087c-.054-.016-.109-.028-.163-.047l-.165-.055-.34-.113-.087-.029-.087-.034-.176-.068-.359-.14-.364-.162-.185-.083c-.062-.028-.123-.061-.185-.092l-.374-.19c-.125-.066-.248-.14-.373-.211l-.188-.108c-.063-.036-.124-.078-.186-.117l-.374-.239a14.194,14.194,0,0,1-1.435-1.125,14.057,14.057,0,0,1-1.282-1.344,13.873,13.873,0,0,1-1.055-1.5,13.655,13.655,0,0,1-.791-1.559l-.152-.39c-.025-.064-.052-.127-.074-.192L7,22.385c-.042-.128-.087-.253-.125-.378l-.1-.373c-.017-.061-.036-.121-.05-.182l-.041-.182L6.6,20.915l-.061-.345-.03-.167-.015-.082-.01-.082-.039-.319-.019-.154c-.007-.05-.008-.1-.012-.151l-.021-.29c-.007-.094-.016-.184-.015-.273,0-.176-.008-.341-.011-.494s.01-.27.014-.386q0-.086,0-.164l.011-.179.011-.175a2,2,0,0,0,.023-.3c0-.014,0-.028,0-.042V17.3h0a1.928,1.928,0,0,0-1.64-1.858Z" transform="translate(15.04 45.33) rotate(-120)" fill="#fff"/></svg>