<svg xmlns="http://www.w3.org/2000/svg" xml:space="preserve" viewBox="0 0 64 64">
  <path d="m40.445 2.178-.05-.015h-.009c-4.151-1.156-8.635-1.215-12.971-.17-.148.024-.297.061-.43.104l-.282.074c-.396.105-.797.221-1.218.352-2.941.808-5.59 2.039-7.873 3.66-4.125 2.928-6.928 7.103-8.101 12.063-.37 1.36-.628 2.795-.745 4.139-.064.543-.053 1.089.034 1.67.05.334.073.637.071.925v.024c-.008.913-.245 1.818-.687 2.617l-2.907 5.263c-.497.901-.773 1.92-.797 2.949-.047 1.987 1.074 3.834 2.816 4.692-.076.23-.128.469-.157.712-.109.927.138 1.913.715 2.862-.246 1.169.026 2.394.738 3.324v4c-.033.953.312 1.857.97 2.546.275.286.593.523.946.704.018.017.037.033.056.05l.018.016c1.385 1.178 3.538 1.707 6.404 1.572 1.986-.092 3.748-.483 4.23-.598.222-.045.439-.072.646-.082l1.609 5.98c.136.504.512.901 1.008 1.063.157.051.319.076.479.076.345 0 .684-.116.961-.339.476-.382.681-1.01.523-1.599l-1.848-6.868c-.184-.682-.745-1.211-1.43-1.346-.797-.157-1.669-.143-2.604.046l-.044.011c-2.363.57-6.416.959-7.903-.308-.08-.066-.155-.144-.225-.232-.279-.346-.405-.798-.375-1.346.175-.547.81-2.871-.402-4.626-.114-.169-.246-.33-.406-.495l-.055-.055c-.075-.07-.436-.454-.138-1.116l.392-.872-.599-.75c-.376-.47-.588-.949-.552-1.248.016-.131.075-.236.192-.34.336-.298.529-.726.529-1.175v-.469c0-.71-.479-1.334-1.165-1.516-.673-.181-1.26-.42-1.699-.691-.446-.275-.738-.764-.78-1.307-.026-.333.046-.664.208-.957l3.827-6.928c.137-.202.994-1.635.614-5.511-.014-.138 0-.255.011-.349.004-.035.007-.065.008-.079l.182-1.647.011-.076c.873-4.428 4.016-12.303 15.244-15.338h.08l.333-.109c.019-.007.038-.014.055-.018l.229-.049c1.842-.369 3.817-.565 5.868-.582h.178c1.036 0 2.066.072 3.055.212 1.626.265 3.221.717 4.742 1.342 4.068 1.67 7.59 4.515 10.184 8.226 2.585 3.701 4.041 7.969 4.209 12.34.031.827.016 1.657-.046 2.467l-.001.02c-.893 8.445-6.389 15.534-14.345 18.504-.181.068-.345.164-.487.286-.792.452-1.168 1.372-.916 2.252l.228.793 1.854 7.907c.127.541.536.973 1.068 1.13.528.155 1.084.025 1.487-.349s.576-.918.462-1.456l-1.708-8.04c1.534-.641 3.011-1.437 4.391-2.368 6.915-4.665 11.089-12.431 11.165-20.777.002-.186.002-.375 0-.561-.144-11.42-7.987-21.378-19.075-24.216z"/>
  <path d="M42.387 25.248c.58-.149.985-.681.985-1.293 0-.41-.186-.789-.511-1.04-.327-.253-.745-.338-1.145-.234-2.1.546-3.566 2.442-3.566 4.612s1.467 4.066 3.566 4.612c.112.029.226.044.338.044.29 0 .572-.095.808-.277.324-.251.51-.63.51-1.041 0-.611-.405-1.143-.985-1.293-.933-.241-1.585-1.082-1.585-2.046 0-.962.652-1.803 1.585-2.044z"/>
  <path d="M50.882 27.294c0-1.82-.692-3.518-1.954-4.81.07-.396.105-.8.105-1.204 0-3.45-2.617-6.401-6.009-6.843-.867-2.06-2.901-3.424-5.149-3.424-.26 0-.522.018-.779.054-1.491.209-2.838 1.026-3.724 2.231-1.045-1.425-2.711-2.285-4.503-2.285-2.343 0-4.413 1.444-5.228 3.619-1.299.36-2.452 1.086-3.347 2.109-1.099 1.256-1.703 2.868-1.703 4.539 0 .168.006.336.019.505-1.725 1.302-2.747 3.341-2.747 5.509 0 1.82.692 3.519 1.954 4.81-.07.395-.105.799-.105 1.204 0 3.449 2.617 6.401 6.008 6.843.866 2.059 2.9 3.424 5.149 3.424 1.792 0 3.458-.859 4.503-2.285 1.045 1.425 2.711 2.285 4.503 2.285.374 0 .749-.038 1.116-.113 1.886-.386 3.44-1.718 4.112-3.506 1.029-.286 1.987-.814 2.782-1.534.198-.179.388-.373.565-.575 1.099-1.256 1.703-2.868 1.703-4.539 0-.168-.006-.337-.018-.504 1.725-1.302 2.747-3.342 2.747-5.51zm-5.473 5.134c.06.288.091.584.091.88 0 1.516-.837 2.927-2.133 3.68-.403-2.209-2.116-3.998-4.356-4.463-.393-.082-.798.017-1.109.27-.308.25-.484.622-.484 1.037 0 .622.443 1.164 1.053 1.29 1.358.279 2.347 1.47 2.362 2.868l-.084.576c-.291 1.467-1.626 2.478-3.133 2.345-1.499-.131-2.672-1.443-2.672-2.987V16.661c0-1.441.999-2.679 2.375-2.943.184-.035.367-.052.548-.052 1.356 0 2.584.951 2.872 2.307.039.208.097.548.103.655-.004 1.368-1 2.562-2.366 2.839-.613.124-1.058.667-1.058 1.308 0 .398.177.772.486 1.024.304.249.699.347 1.08.269 2.374-.48 4.163-2.467 4.438-4.836 1.742.553 2.959 2.18 2.959 4.047 0 .432-.064.857-.191 1.263l-.269.865.707.565c1.017.812 1.6 2.023 1.6 3.321 0 1.533-.832 2.953-2.172 3.706l-.849.477.202.952zm-17.138 2.693c.613-.124 1.057-.666 1.057-1.309 0-.398-.177-.772-.486-1.024-.236-.193-.526-.295-.823-.295-.085 0-.172.008-.257.025-2.374.48-4.163 2.467-4.438 4.837-1.742-.553-2.959-2.18-2.959-4.047 0-.432.064-.857.191-1.263l.269-.865-.708-.566c-1.017-.813-1.601-2.023-1.601-3.321 0-1.533.832-2.953 2.172-3.705l.848-.477-.2-.952c-.061-.29-.092-.586-.092-.88 0-1.515.837-2.926 2.132-3.679.202 1.11.737 2.137 1.544 2.944.776.776 1.748 1.301 2.812 1.52.395.081.8-.017 1.11-.271.307-.25.483-.621.483-1.037 0-.621-.445-1.164-1.058-1.291-.557-.115-1.066-.391-1.473-.798-.611-.613-.934-1.367-.884-2.067.011-.147.086-.579.085-.579.291-1.466 1.633-2.472 3.131-2.345 1.499.13 2.674 1.442 2.674 2.986v21.259c0 1.484-1.077 2.761-2.505 2.969-1.526.218-2.973-.781-3.289-2.275-.036-.194-.096-.545-.105-.657-.115-1.453 1.115-2.583 2.37-2.837z"/>
  <path d="M25.03 22.681c-.401-.105-.819-.019-1.145.234-.324.251-.511.63-.511 1.04v.043c0 .586.405 1.101.985 1.25.933.241 1.585 1.082 1.585 2.046 0 .964-.652 1.805-1.585 2.046-.58.149-.985.681-.985 1.293 0 .41.186.789.511 1.04.235.182.518.277.807.277.112 0 .226-.014.338-.044 2.1-.546 3.567-2.442 3.567-4.612s-1.467-4.067-3.567-4.613z"/>
</svg>